<svg id="Layer_1" data-name="Layer 1" xmlns="http://www.w3.org/2000/svg" viewBox="0 0 144 117.17"><path d="M43,117.17l-27-.08A18.42,18.42,0,0,1,0,99.22c0-27.31-.09-54.63.07-81.93A17.12,17.12,0,0,1,17.37.18q45.71-.36,91.41,0a17,17,0,0,1,17,16.86c.39,12.48.13,25,.13,37.47,0,3.79-2.14,6.29-5.68,6.24s-5.43-2.46-5.38-6.38c.14-11.32.06-22.65,0-34a9.12,9.12,0,0,0-9.19-9.32q-42.72,0-85.42,0a9.09,9.09,0,0,0-9.25,9.25q0,38.22,0,76.44A9.11,9.11,0,0,0,20.37,106c17,0,34,.11,50.95-.06,4.13,0,7.32,1.25,7.37,5.43s-3.14,5.73-7.24,5.7C62,117,52.48,117.11,43,117.17Z" style="fill:#000"/><path d="M117.14,72c5.66,0,11.32-.07,17,0,6.18.11,9.67,3.44,9.77,9.56q.21,13,0,26c-.1,5.86-3.56,9.33-9.4,9.4q-17.47.18-34.95,0c-6.07-.06-9.45-3.57-9.53-9.79q-.18-12.73,0-25.46c.1-6.17,3.52-9.54,9.67-9.66C105.49,71.94,111.32,72,117.14,72Z" style="fill:#000"/><path d="M72,58.42c0,3.33,0,6.65,0,10C72,70.9,70.87,72,68.37,72q-10-.06-20,0c-1.45,0-2.65-.38-3.23-1.79s.16-2.56,1.1-3.58c1.89-2.06,5.74-4.84,5.3-6-1-2.86-4.08-5-6.41-7.39Q37.46,45.41,29.65,37.7c-2.9-2.85-4-6.05-.8-9.1,3-2.86,6.14-1.64,8.79,1C44.22,36.2,50.9,42.7,57.28,49.47c2.36,2.5,3.81,2.77,6.18.09,1.73-2,3.28-5.53,6.6-4.22s1.56,5,1.88,7.6A45.51,45.51,0,0,1,72,58.42Z" style="fill:#000"/></svg>
